<svg xmlns="http://www.w3.org/2000/svg" xmlns:xlink="http://www.w3.org/1999/xlink" width="411" height="120" viewBox="0 0 411 120">
  <defs>
    <linearGradient id="logo-b" x1="-9.883%" y1="-11.305%" y2="100%">
      <stop offset="0%" stop-color="#473BF8"/>
      <stop offset="100%" stop-color="#862FEB"/>
    </linearGradient>
    <circle id="logo-a" cx="60" cy="60" r="60"/>
    <path id="logo-d" d="M37,39 L48.1218725,39 L63.9128329,64.9666667 L64.0177563,64.9666667 L64.0177563,39 L72.2017756,39 L72.2017756,76.3666667 L61.4995964,76.3666667 L45.2889427,49.7666667 L45.1840194,49.7666667 L45.1840194,76.3666667 L37,76.3666667 L37,39 Z M94.7602906,73.1472222 L94.6553672,73.1472222 C93.7810018,74.5194513 92.6181133,75.5046266 91.1666667,76.1027778 C89.7152201,76.7009289 88.1851036,77 86.5762712,77 C85.3871342,77 84.2417327,76.832872 83.1400323,76.4986111 C82.0383319,76.1643502 81.0678008,75.6629663 80.22841,74.9944444 C79.3890192,74.3259226 78.7245115,73.499079 78.2348668,72.5138889 C77.7452222,71.5286988 77.5004036,70.3851917 77.5004036,69.0833333 C77.5004036,67.6055482 77.7714528,66.3564866 78.3135593,65.3361111 C78.8556659,64.3157356 79.5901218,63.4712996 80.5169492,62.8027778 C81.4437765,62.1342559 82.5017428,61.6152796 83.6908797,61.2458333 C84.8800167,60.876387 86.1128535,60.6037046 87.389427,60.4277778 C88.6660005,60.251851 89.9425548,60.1462965 91.2191283,60.1111111 C92.4957018,60.0759258 93.6760774,60.0583333 94.7602906,60.0583333 C94.7602906,58.6509189 94.2619097,57.5338004 93.2651332,56.7069444 C92.2683566,55.8800885 91.087981,55.4666667 89.7239709,55.4666667 C88.4299101,55.4666667 87.2495345,55.7393491 86.1828087,56.2847222 C85.1160829,56.8300953 84.1630389,57.577773 83.3236481,58.5277778 L79.1267151,54.2 C80.595649,52.8277709 82.3093795,51.7986145 84.267958,51.1125 C86.2265366,50.4263855 88.2550339,50.0833333 90.3535109,50.0833333 C92.6618356,50.0833333 94.5591801,50.3736082 96.0456013,50.9541667 C97.5320225,51.5347251 98.7211416,52.3879573 99.6129944,53.5138889 C100.504847,54.6398204 101.125637,56.0208252 101.475383,57.6569444 C101.82513,59.2930637 102,61.1842485 102,63.3305556 L102,76.3666667 L94.7602906,76.3666667 L94.7602906,73.1472222 Z M92.819209,65.125 C92.2246406,65.125 91.4814411,65.1513886 90.5895884,65.2041667 C89.6977357,65.2569447 88.8408704,65.4064802 88.0189669,65.6527778 C87.1970634,65.8990753 86.4975816,66.2685161 85.9205004,66.7611111 C85.3434192,67.2537062 85.054883,67.9398104 85.054883,68.8194444 C85.054883,69.7694492 85.457085,70.4731459 86.2615012,70.9305556 C87.0659174,71.3879652 87.9052956,71.6166667 88.779661,71.6166667 C89.5491026,71.6166667 90.292302,71.5111122 91.0092817,71.3 C91.7262613,71.0888878 92.3645385,70.7898167 92.9241324,70.4027778 C93.4837262,70.0157388 93.9296459,69.5231511 94.2619048,68.925 C94.5941636,68.3268489 94.7602906,67.6231522 94.7602906,66.8138889 L94.7602906,65.125 L92.819209,65.125 Z"/>
    <filter id="logo-c" width="103.1%" height="110.5%" x="-1.5%" y="-2.6%" filterUnits="objectBoundingBox">
      <feOffset dy="2" in="SourceAlpha" result="shadowOffsetOuter1"/>
      <feColorMatrix in="shadowOffsetOuter1" values="0 0 0 0 0   0 0 0 0 0   0 0 0 0 0  0 0 0 0.198879076 0"/>
    </filter>
  </defs>
  <g fill="none" fill-rule="evenodd" transform="translate(-9)">
    <path fill="#1C1C1C" d="M30.7409308,17.4625688 C29.7747098,16.2420791 28.4652457,15.3394388 26.8124992,14.7546208 C25.1597527,14.1698028 23.5960237,13.8773982 22.1212653,13.8773982 C21.2567518,13.8773982 20.3668247,13.9791042 19.4514575,14.1825191 C18.5360902,14.3859341 17.6715896,14.7037652 16.8579298,15.136022 C16.04427,15.5682787 15.3831813,16.1403747 14.8746439,16.852327 C14.3661066,17.5642794 14.1118417,18.4287799 14.1118417,19.4458547 C14.1118417,21.0731743 14.7220774,22.3190722 15.9425671,23.1835857 C17.1630568,24.0480993 18.7013593,24.7854674 20.5575207,25.3957123 C22.4136822,26.0059571 24.4096614,26.6161928 26.5455184,27.2264377 C28.6813754,27.8366825 30.6773547,28.7011831 32.5335161,29.8199653 C34.3896775,30.9387476 35.92798,32.4389103 37.1484697,34.3204986 C38.3689594,36.2020869 38.9791951,38.7193092 38.9791951,41.8722409 C38.9791951,44.8726115 38.4198124,47.4915397 37.3010302,49.7291041 C36.182248,51.9666686 34.669372,53.8228022 32.7623568,55.2975606 C30.8553416,56.772319 28.6432372,57.865658 26.1259772,58.5776103 C23.6087172,59.2895626 20.9516492,59.6455334 18.1546936,59.6455334 C14.6457857,59.6455334 11.3911953,59.1115772 8.39082479,58.0436487 C5.39045426,56.9757202 2.59354063,55.2467191 0,52.8565934 L8.46710501,43.5504059 C9.68759472,45.1777255 11.2258972,46.4363366 13.0820586,47.326277 C14.9382201,48.2162175 16.8579199,48.661181 18.8412157,48.661181 C19.8074367,48.661181 20.7863564,48.5467618 21.7780043,48.31792 C22.7696522,48.0890782 23.6595793,47.7458206 24.4478122,47.2881369 C25.2360452,46.8304533 25.8717073,46.2456441 26.3548179,45.5336918 C26.8379284,44.8217394 27.07948,43.9826653 27.07948,43.0164443 C27.07948,41.3891247 26.4565311,40.1050871 25.2106145,39.1642929 C23.9646979,38.2234988 22.4009689,37.4225644 20.5193806,36.7614658 C18.6377923,36.1003672 16.6036733,35.4392786 14.4169626,34.77818 C12.2302519,34.1170814 10.1961329,33.2271543 8.31454456,32.1083721 C6.43295626,30.9895899 4.86922728,29.5148536 3.6233107,27.684119 C2.37739413,25.8533845 1.75444518,23.4378681 1.75444518,20.4374976 C1.75444518,17.5388346 2.32654115,14.9961858 3.47075025,12.8094751 C4.61495935,10.6227644 6.1405486,8.79205726 8.04756377,7.31729886 C9.95457894,5.84254046 12.1539701,4.73648826 14.6458033,3.99910906 C17.1376364,3.26172986 19.7057117,2.89304579 22.350106,2.89304579 C25.4013303,2.89304579 28.3508028,3.32529608 31.1986122,4.18980962 C34.0464215,5.05432316 36.6144967,6.50363295 38.9029149,8.53778246 L30.7409308,17.4625688 Z M45.0053329,39.7363946 C45.0053329,36.7868778 45.5392892,34.1170966 46.6072177,31.726971 C47.6751462,29.3368453 49.1371692,27.290013 50.9933306,25.5864128 C52.8494921,23.8828126 55.03617,22.5733485 57.55343,21.6579812 C60.07069,20.7426139 62.7531845,20.2849372 65.6009938,20.2849372 C68.4488031,20.2849372 71.1312975,20.7426139 73.6485576,21.6579812 C76.1658176,22.5733485 78.3524955,23.8828126 80.2086569,25.5864128 C82.0648184,27.290013 83.5268414,29.3368453 84.5947699,31.726971 C85.6626984,34.1170966 86.1966546,36.7868778 86.1966546,39.7363946 C86.1966546,42.6859114 85.6626984,45.3556926 84.5947699,47.7458183 C83.5268414,50.135944 82.0648184,52.1827762 80.2086569,53.8863764 C78.3524955,55.5899766 76.1658176,56.8994408 73.6485576,57.814808 C71.1312975,58.7301753 68.4488031,59.1878521 65.6009938,59.1878521 C62.7531845,59.1878521 60.07069,58.7301753 57.55343,57.814808 C55.03617,56.8994408 52.8494921,55.5899766 50.9933306,53.8863764 C49.1371692,52.1827762 47.6751462,50.135944 46.6072177,47.7458183 C45.5392892,45.3556926 45.0053329,42.6859114 45.0053329,39.7363946 Z M131.812229,58.2724894 L121.285558,58.2724894 L121.285558,53.390555 L121.132998,53.390555 C120.675314,54.0516536 120.077792,54.7254555 119.340413,55.4119809 C118.603033,56.0985064 117.738533,56.7214553 116.746885,57.2808465 C115.755237,57.8402376 114.661898,58.2979143 113.466835,58.6538905 C112.271772,59.0098667 111.038588,59.1878521 109.767244,59.1878521 C107.021142,59.1878521 104.529347,58.7174621 102.291782,57.7766679 C100.054218,56.8358738 98.1345179,55.5136964 96.5326252,53.8100962 C94.9307324,52.106496 93.6975478,50.0850902 92.8330342,47.7458183 C91.9685207,45.4065463 91.5362704,42.8384711 91.5362704,40.0415155 C91.5362704,37.4479749 91.930381,34.9688924 92.7186139,32.6041936 C93.5068468,30.2394947 94.6256123,28.1418095 96.0749438,26.311075 C97.5242753,24.4803404 99.2914162,23.0183174 101.376419,21.924962 C103.461423,20.8316066 105.826086,20.2849372 108.47048,20.2849372 C110.860606,20.2849372 113.085424,20.6536212 115.145,21.3910004 C117.204577,22.1283796 118.895438,23.3869908 120.217635,25.1668716 L120.370196,25.1668716 L120.370196,0.604639029 L131.812229,0.604639029 L131.812229,58.2724894 Z M141.118417,21.2002999 L152.560451,21.2002999 L152.560451,58.2724894 L141.118417,58.2724894 L141.118417,21.2002999 Z M140.203054,9.52942539 C140.203054,7.69869083 140.85143,6.13496185 142.1482,4.83819154 C143.44497,3.54142122 145.008699,2.89304579 146.839434,2.89304579 C148.670168,2.89304579 150.233897,3.54142122 151.530668,4.83819154 C152.827438,6.13496185 153.475813,7.69869083 153.475813,9.52942539 C153.475813,11.36016 152.827438,12.9238889 151.530668,14.2206593 C150.233897,15.5174296 148.670168,16.165805 146.839434,16.165805 C145.008699,16.165805 143.44497,15.5174296 142.1482,14.2206593 C140.85143,12.9238889 140.203054,11.36016 140.203054,9.52942539 Z M196.49786,58.2724894 L185.513508,58.2724894 L185.513508,53.2379945 L185.360948,53.2379945 C184.954118,53.9499468 184.432875,54.6618885 183.797203,55.3738408 C183.161531,56.0857931 182.386023,56.7214553 181.470656,57.2808465 C180.555289,57.8402376 179.512803,58.2979143 178.343167,58.6538905 C177.173531,59.0098667 175.902206,59.1878521 174.529156,59.1878521 C171.630493,59.1878521 169.278542,58.7428886 167.473235,57.8529481 C165.667927,56.9630077 164.26947,55.7298231 163.277822,54.1533572 C162.286174,52.5768913 161.625086,50.7207578 161.294536,48.5849008 C160.963987,46.4490438 160.798715,44.1352334 160.798715,41.6434003 L160.798715,21.2002999 L172.240749,21.2002999 L172.240749,39.3549935 C172.240749,40.422922 172.278889,41.5289742 172.355169,42.6731833 C172.43145,43.8173924 172.660288,44.8725916 173.041691,45.8388127 C173.423094,46.8050337 174.007903,47.5932548 174.796136,48.2034996 C175.584369,48.8137445 176.715848,49.1188623 178.190606,49.1188623 C179.665365,49.1188623 180.86041,48.8518842 181.775777,48.31792 C182.691144,47.7839557 183.390373,47.0720141 183.873483,46.1820737 C184.356594,45.2921333 184.674425,44.287787 184.826986,43.1690048 C184.979547,42.0502225 185.055827,40.8806041 185.055827,39.6601144 L185.055827,21.2002999 L196.49786,21.2002999 L196.49786,58.2724894 Z M204.583564,21.2002999 L215.567917,21.2002999 L215.567917,26.2347947 L215.720477,26.2347947 C216.076453,25.5228424 216.584983,24.8109008 217.246082,24.0989484 C217.90718,23.3869961 218.695401,22.7513339 219.610769,22.1919428 C220.526136,21.6325517 221.568622,21.1748749 222.738258,20.8188987 C223.907894,20.4629226 225.179218,20.2849372 226.552269,20.2849372 C229.14581,20.2849372 231.446907,20.8188934 233.45563,21.8868219 C235.464352,22.9547504 236.977228,24.6328986 237.994303,26.9213168 C239.3165,24.5311911 240.918369,22.8276164 242.799957,21.8105417 C244.681546,20.7934669 246.995356,20.2849372 249.741458,20.2849372 C252.233291,20.2849372 254.330976,20.7044742 256.034576,21.5435609 C257.738177,22.3826476 259.08578,23.5268395 260.077428,24.976171 C261.069076,26.4255026 261.781018,28.1290772 262.213275,30.0869461 C262.645531,32.044815 262.861657,34.1425002 262.861657,36.3800647 L262.861657,58.2724894 L251.419623,58.2724894 L251.419623,36.6851856 C251.419623,34.9561585 251.050939,33.468709 250.313559,32.2227924 C249.57618,30.9768759 248.266716,30.3539269 246.385128,30.3539269 C245.062931,30.3539269 243.956878,30.5700521 243.066938,31.0023088 C242.176998,31.4345656 241.465056,32.0320881 240.931092,32.7948941 C240.397127,33.5577002 240.01573,34.4476273 239.786888,35.464702 C239.558047,36.4817768 239.443627,37.5496892 239.443627,38.6684715 L239.443627,58.2724894 L228.001594,58.2724894 L228.001594,38.6684715 C228.001594,38.0073729 227.976167,37.1937253 227.925313,36.2275043 C227.87446,35.2612832 227.696474,34.3459297 227.391352,33.4814161 C227.086229,32.6169026 226.590413,31.8795345 225.903887,31.2692896 C225.217362,30.6590448 224.213016,30.3539269 222.890818,30.3539269 C221.41606,30.3539269 220.221015,30.620905 219.305648,31.1548693 C218.390281,31.6888335 217.691052,32.4007752 217.207942,33.2907156 C216.724831,34.180656 216.407,35.1850023 216.254439,36.3037845 C216.101878,37.4225667 216.025598,38.5921851 216.025598,39.8126749 L216.025598,58.2724894 L204.583564,58.2724894 L204.583564,21.2002999 Z" transform="translate(157 30)"/>
    <g transform="translate(9)">
      <use fill="url(#logo-b)" xlink:href="#logo-a"/>
    </g>
    <use fill="#000" filter="url(#logo-c)" xlink:href="#logo-d"/>
    <use fill="#FFF" xlink:href="#logo-d"/>
  </g>
</svg>
